<svg width="14" height="14" viewBox="0 0 14 14" fill="none" xmlns="http://www.w3.org/2000/svg">
<path d="M12.5005 10.0715V3.92953C12.8417 3.84209 13.1537 3.66593 13.4048 3.41892C13.6559 3.17192 13.8372 2.86286 13.9302 2.52315C14.0232 2.18343 14.0247 1.82514 13.9345 1.48468C13.8442 1.14421 13.6655 0.833678 13.4164 0.584618C13.1674 0.335558 12.8569 0.156838 12.5164 0.0666078C12.1759 -0.0236252 11.8176 -0.0221552 11.4779 0.0708678C11.1382 0.163888 10.8291 0.345148 10.5821 0.596248C10.3351 0.847338 10.159 1.15933 10.0715 1.50053H3.92953C3.84209 1.15933 3.66593 0.847338 3.41892 0.596248C3.17192 0.345148 2.86286 0.163888 2.52315 0.0708678C2.18343 -0.0221552 1.82514 -0.0236252 1.48468 0.0666078C1.14421 0.156838 0.833678 0.335558 0.584618 0.584618C0.335558 0.833678 0.156838 1.14421 0.0666078 1.48468C-0.0236252 1.82514 -0.0221552 2.18343 0.0708678 2.52315C0.163888 2.86286 0.345148 3.17192 0.596248 3.41892C0.847338 3.66593 1.15933 3.84209 1.50053 3.92953V10.0715C1.15933 10.159 0.847338 10.3351 0.596248 10.5821C0.345148 10.8291 0.163888 11.1382 0.0708678 11.4779C-0.0221552 11.8176 -0.0236252 12.1759 0.0666078 12.5164C0.156838 12.8569 0.335558 13.1674 0.584618 13.4164C0.833678 13.6655 1.14421 13.8442 1.48468 13.9345C1.82514 14.0247 2.18343 14.0232 2.52315 13.9302C2.86286 13.8372 3.17192 13.6559 3.41892 13.4048C3.66593 13.1537 3.84209 12.8417 3.92953 12.5005H10.0715C10.159 12.8417 10.3351 13.1537 10.5821 13.4048C10.8291 13.6559 11.1382 13.8372 11.4779 13.9302C11.8176 14.0232 12.1759 14.0247 12.5164 13.9345C12.8569 13.8442 13.1674 13.6655 13.4164 13.4164C13.6655 13.1674 13.8442 12.8569 13.9345 12.5164C14.0247 12.1759 14.0232 11.8176 13.9302 11.4779C13.8372 11.1382 13.6559 10.8291 13.4048 10.5821C13.1537 10.3351 12.8417 10.159 12.5005 10.0715ZM12.0005 1.00053C12.1983 1.00053 12.3917 1.05918 12.5561 1.16906C12.7206 1.27894 12.8487 1.43512 12.9244 1.61784C13.0001 1.80057 13.0199 2.00164 12.9813 2.19562C12.9427 2.3896 12.8475 2.56778 12.7076 2.70763C12.5678 2.84749 12.3896 2.94273 12.1956 2.98131C12.0016 3.0199 11.8006 3.00009 11.6179 2.92441C11.4351 2.84872 11.2789 2.72055 11.1691 2.5561C11.0592 2.39165 11.0005 2.19831 11.0005 2.00053C11.0008 1.73539 11.1062 1.48119 11.2937 1.29371C11.4812 1.10623 11.7354 1.00079 12.0005 1.00053ZM1.00053 2.00053C1.00053 1.80275 1.05918 1.60941 1.16906 1.44496C1.27894 1.28051 1.43512 1.15234 1.61784 1.07665C1.80057 1.00096 2.00164 0.981158 2.19562 1.01974C2.3896 1.05833 2.56778 1.15357 2.70763 1.29342C2.84749 1.43327 2.94273 1.61146 2.98131 1.80544C3.0199 1.99942 3.00009 2.20048 2.92441 2.38321C2.84872 2.56594 2.72055 2.72212 2.5561 2.832C2.39165 2.94188 2.19831 3.00053 2.00053 3.00053C1.73539 3.00026 1.48119 2.89482 1.29371 2.70734C1.10623 2.51986 1.00079 2.26566 1.00053 2.00053ZM2.00053 13.0005C1.80275 13.0005 1.60941 12.9419 1.44496 12.832C1.28051 12.7221 1.15234 12.5659 1.07665 12.3832C1.00096 12.2005 0.981158 11.9994 1.01974 11.8054C1.05833 11.6115 1.15357 11.4333 1.29342 11.2934C1.43327 11.1536 1.61146 11.0583 1.80544 11.0198C1.99942 10.9812 2.20048 11.001 2.38321 11.0767C2.56594 11.1523 2.72212 11.2805 2.832 11.445C2.94188 11.6094 3.00053 11.8028 3.00053 12.0005C3.00026 12.2657 2.89482 12.5199 2.70734 12.7074C2.51986 12.8948 2.26566 13.0003 2.00053 13.0005ZM10.0715 11.5005H3.92953C3.83996 11.1568 3.66032 10.8431 3.40913 10.5919C3.15794 10.3407 2.84429 10.1611 2.50053 10.0715V3.92953C2.84427 3.83992 3.15789 3.66026 3.40908 3.40908C3.66026 3.15789 3.83992 2.84427 3.92953 2.50053H10.0715C10.1611 2.84429 10.3407 3.15794 10.5919 3.40913C10.8431 3.66032 11.1568 3.83996 11.5005 3.92953V10.0715C11.1568 10.1611 10.8431 10.3407 10.5919 10.5919C10.3407 10.8431 10.1611 11.1568 10.0715 11.5005ZM12.0005 13.0005C11.8028 13.0005 11.6094 12.9419 11.445 12.832C11.2805 12.7221 11.1523 12.5659 11.0767 12.3832C11.001 12.2005 10.9812 11.9994 11.0198 11.8054C11.0583 11.6115 11.1536 11.4333 11.2934 11.2934C11.4333 11.1536 11.6115 11.0583 11.8054 11.0198C11.9994 10.9812 12.2005 11.001 12.3832 11.0767C12.5659 11.1523 12.7221 11.2805 12.832 11.445C12.9419 11.6094 13.0005 11.8028 13.0005 12.0005C13.0001 12.2656 12.8947 12.5198 12.7072 12.7072C12.5198 12.8947 12.2656 13.0001 12.0005 13.0005Z" fill="#FF0000"/>
</svg>
