<svg width="8" height="12" viewBox="0 0 8 12" fill="none" xmlns="http://www.w3.org/2000/svg">
<path d="M0 12H8V0H0V12ZM4.72727 1.41176C4.72727 1.21682 4.89006 1.05882 5.09091 1.05882H6.54545C6.74631 1.05882 6.90909 1.21682 6.90909 1.41176V2.82353C6.90909 3.01847 6.74631 3.17647 6.54545 3.17647H5.09091C4.89006 3.17647 4.72727 3.01847 4.72727 2.82353V1.41176ZM4.72727 4.23529C4.72727 4.04035 4.89006 3.88235 5.09091 3.88235H6.54545C6.74631 3.88235 6.90909 4.04035 6.90909 4.23529V5.64706C6.90909 5.842 6.74631 6 6.54545 6H5.09091C4.89006 6 4.72727 5.842 4.72727 5.64706V4.23529ZM4.72727 7.05882C4.72727 6.86388 4.89006 6.70588 5.09091 6.70588H6.54545C6.74631 6.70588 6.90909 6.86388 6.90909 7.05882V8.47059C6.90909 8.66553 6.74631 8.82353 6.54545 8.82353H5.09091C4.89006 8.82353 4.72727 8.66553 4.72727 8.47059V7.05882ZM1.09091 1.41176C1.09091 1.21682 1.25369 1.05882 1.45455 1.05882H2.90909C3.10994 1.05882 3.27273 1.21682 3.27273 1.41176V2.82353C3.27273 3.01847 3.10994 3.17647 2.90909 3.17647H1.45455C1.25369 3.17647 1.09091 3.01847 1.09091 2.82353V1.41176ZM1.09091 4.23529C1.09091 4.04035 1.25369 3.88235 1.45455 3.88235H2.90909C3.10994 3.88235 3.27273 4.04035 3.27273 4.23529V5.64706C3.27273 5.842 3.10994 6 2.90909 6H1.45455C1.25369 6 1.09091 5.842 1.09091 5.64706V4.23529ZM1.09091 7.05882C1.09091 6.86388 1.25369 6.70588 1.45455 6.70588H2.90909C3.10994 6.70588 3.27273 6.86388 3.27273 7.05882V8.47059C3.27273 8.66553 3.10994 8.82353 2.90909 8.82353H1.45455C1.25369 8.82353 1.09091 8.66553 1.09091 8.47059V7.05882Z" fill="#7BCB14"/>
</svg>
