<svg width="12" height="12" viewBox="0 0 12 12" fill="none" xmlns="http://www.w3.org/2000/svg">
<path d="M5.99975 0C3.60339 0 1.65381 1.94958 1.65381 4.34592C1.65381 7.31986 5.543 11.6858 5.70859 11.8702C5.86412 12.0434 6.13567 12.0431 6.29092 11.8702C6.4565 11.6858 10.3457 7.31986 10.3457 4.34592C10.3457 1.94958 8.3961 0 5.99975 0ZM5.99975 6.53248C4.79408 6.53248 3.81322 5.55159 3.81322 4.34592C3.81322 3.14025 4.79411 2.15939 5.99975 2.15939C7.2054 2.15939 8.18626 3.14027 8.18626 4.34594C8.18626 5.55162 7.2054 6.53248 5.99975 6.53248Z" fill="#CC23E8"/>
</svg>
