<svg width="29" height="28" viewBox="0 0 29 28" fill="none" xmlns="http://www.w3.org/2000/svg">
<path d="M28.9584 10.5046C28.8584 10.197 28.5926 9.97285 28.2726 9.9264L19.2825 8.61999L15.2619 0.47357C15.1188 0.183572 14.8234 0 14.5 0C14.1766 0 13.8813 0.183572 13.7382 0.47357L9.71739 8.61999L0.727425 9.9264C0.407464 9.97285 0.141537 10.197 0.0416232 10.5046C-0.0583471 10.8122 0.0250276 11.1498 0.25663 11.3755L6.76167 17.7167L5.22626 26.6706C5.17154 26.9893 5.30261 27.3114 5.56423 27.5015C5.71223 27.609 5.88754 27.6637 6.06369 27.6637C6.19894 27.6637 6.33465 27.6315 6.45892 27.5661L14.5 23.3386L22.5407 27.5661C22.827 27.7166 23.1738 27.6916 23.4355 27.5015C23.6971 27.3114 23.8282 26.9892 23.7736 26.6704L22.2376 17.7167L28.7434 11.3755C28.975 11.1498 29.0584 10.8122 28.9584 10.5046Z" fill="white"/>
</svg>
