<svg width="17" height="17" viewBox="0 0 17 17" fill="none" xmlns="http://www.w3.org/2000/svg">
<path d="M6.375 8.5C7.22038 8.5 8.03113 8.16418 8.6289 7.5664C9.22668 6.96863 9.5625 6.15788 9.5625 5.3125C9.5625 4.46712 9.22668 3.65637 8.6289 3.0586C8.03113 2.46083 7.22038 2.125 6.375 2.125C5.52962 2.125 4.71887 2.46083 4.1211 3.0586C3.52332 3.65637 3.1875 4.46712 3.1875 5.3125C3.1875 6.15788 3.52332 6.96863 4.1211 7.5664C4.71887 8.16418 5.52962 8.5 6.375 8.5ZM1.0625 14.875C1.0625 14.875 0 14.875 0 13.8125C0 12.75 1.0625 9.5625 6.375 9.5625C11.6875 9.5625 12.75 12.75 12.75 13.8125C12.75 14.875 11.6875 14.875 11.6875 14.875H1.0625ZM11.6875 3.71875C11.6875 3.57785 11.7435 3.44273 11.8431 3.3431C11.9427 3.24347 12.0779 3.1875 12.2188 3.1875H16.4688C16.6096 3.1875 16.7448 3.24347 16.8444 3.3431C16.944 3.44273 17 3.57785 17 3.71875C17 3.85965 16.944 3.99477 16.8444 4.0944C16.7448 4.19403 16.6096 4.25 16.4688 4.25H12.2188C12.0779 4.25 11.9427 4.19403 11.8431 4.0944C11.7435 3.99477 11.6875 3.85965 11.6875 3.71875ZM12.2188 6.375C12.0779 6.375 11.9427 6.43097 11.8431 6.5306C11.7435 6.63023 11.6875 6.76535 11.6875 6.90625C11.6875 7.04715 11.7435 7.18227 11.8431 7.2819C11.9427 7.38153 12.0779 7.4375 12.2188 7.4375H16.4688C16.6096 7.4375 16.7448 7.38153 16.8444 7.2819C16.944 7.18227 17 7.04715 17 6.90625C17 6.76535 16.944 6.63023 16.8444 6.5306C16.7448 6.43097 16.6096 6.375 16.4688 6.375H12.2188ZM14.3438 9.5625C14.2029 9.5625 14.0677 9.61847 13.9681 9.7181C13.8685 9.81773 13.8125 9.95285 13.8125 10.0938C13.8125 10.2346 13.8685 10.3698 13.9681 10.4694C14.0677 10.569 14.2029 10.625 14.3438 10.625H16.4688C16.6096 10.625 16.7448 10.569 16.8444 10.4694C16.944 10.3698 17 10.2346 17 10.0938C17 9.95285 16.944 9.81773 16.8444 9.7181C16.7448 9.61847 16.6096 9.5625 16.4688 9.5625H14.3438ZM14.3438 12.75C14.2029 12.75 14.0677 12.806 13.9681 12.9056C13.8685 13.0052 13.8125 13.1404 13.8125 13.2812C13.8125 13.4221 13.8685 13.5573 13.9681 13.6569C14.0677 13.7565 14.2029 13.8125 14.3438 13.8125H16.4688C16.6096 13.8125 16.7448 13.7565 16.8444 13.6569C16.944 13.5573 17 13.4221 17 13.2812C17 13.1404 16.944 13.0052 16.8444 12.9056C16.7448 12.806 16.6096 12.75 16.4688 12.75H14.3438Z" fill="black"/>
</svg>
