<svg width="100" height="100" viewBox="0 0 100 100" fill="none" xmlns="http://www.w3.org/2000/svg">
<path d="M48.5343 0C21.7434 0 0 22.4 0 50C0 77.6 21.7434 100 48.5343 100C75.3252 100 97.0685 77.6 97.0685 50C97.0685 22.4 75.3252 0 48.5343 0ZM48.5343 15C56.591 15 63.0946 21.7 63.0946 30C63.0946 38.3 56.591 45 48.5343 45C40.4776 45 33.974 38.3 33.974 30C33.974 21.7 40.4776 15 48.5343 15ZM48.5343 86C42.7677 86 37.0908 84.5299 32.0097 81.7207C26.9286 78.9115 22.6013 74.8506 19.4137 69.9C19.5593 59.95 38.8274 54.5 48.5343 54.5C58.1926 54.5 77.5092 59.95 77.6548 69.9C74.4672 74.8506 70.1399 78.9115 65.0588 81.7207C59.9778 84.5299 54.3008 86 48.5343 86Z" fill="#396AB6"/>
<ellipse cx="86.7647" cy="82.5" rx="13.2353" ry="13.5" fill="#1700A7"/>
<path d="M92.6629 78.6765L90.4802 76.4422C90.1954 76.1683 89.8221 76.0111 89.4314 76.0006C89.0407 75.99 88.6599 76.1269 88.3613 76.3851L81.1921 83.7241C80.9347 83.9899 80.7743 84.3383 80.7381 84.7108L80.3956 88.1112C80.3848 88.2306 80.4 88.351 80.4399 88.4637C80.4798 88.5765 80.5436 88.6789 80.6266 88.7635C80.701 88.8391 80.7893 88.8989 80.8863 88.9395C80.9834 88.98 81.0873 89.0006 81.1921 89H81.2638L84.5856 88.6901C84.9494 88.653 85.2898 88.4889 85.5494 88.2253L92.7186 80.8863C92.9969 80.5854 93.1473 80.1838 93.1368 79.7696C93.1263 79.3554 92.9559 78.9623 92.6629 78.6765ZM84.4422 87.0592L82.0524 87.2876L82.2675 84.8412L86.7682 80.2911L88.9189 82.4928L84.4422 87.0592ZM89.9545 81.4001L87.8197 79.2147L89.373 77.5838L91.5476 79.8099L89.9545 81.4001Z" fill="white"/>
</svg>
