<svg width="17" height="17" viewBox="0 0 17 17" fill="none" xmlns="http://www.w3.org/2000/svg">
<path d="M16.4042 3.28224L13.6642 0.542241C13.3066 0.206336 12.838 0.0135995 12.3475 0.000692758C11.8571 -0.012214 11.379 0.15561 11.0042 0.472241L2.0042 9.47224C1.68097 9.79821 1.47971 10.2254 1.4342 10.6822L1.0042 14.8522C0.990732 14.9987 1.00974 15.1463 1.05986 15.2846C1.10999 15.4229 1.19001 15.5484 1.2942 15.6522C1.38764 15.7449 1.49846 15.8182 1.6203 15.868C1.74213 15.9178 1.8726 15.943 2.0042 15.9422H2.0942L6.2642 15.5622C6.721 15.5167 7.14824 15.3155 7.4742 14.9922L16.4742 5.99224C16.8235 5.62321 17.0123 5.13075 16.9992 4.62278C16.9861 4.1148 16.7721 3.63275 16.4042 3.28224ZM6.0842 13.5622L3.0842 13.8422L3.3542 10.8422L9.0042 5.26224L11.7042 7.96224L6.0842 13.5622ZM13.0042 6.62224L10.3242 3.94224L12.2742 1.94224L15.0042 4.67224L13.0042 6.62224Z" fill="black"/>
</svg>
