<svg width="16" height="16" viewBox="0 0 16 16" fill="none" xmlns="http://www.w3.org/2000/svg">
<path d="M9.45452 5.45459H7.27271V7.63641H9.45452C10.056 7.63641 10.5454 7.14702 10.5454 6.5455C10.5454 5.94398 10.056 5.45459 9.45452 5.45459Z" fill="#FF3324"/>
<path d="M8.00004 0C3.58913 0 0 3.58913 0 8.00004C0 12.411 3.58913 16 8.00004 16C12.411 16 16 12.411 16 8.00004C16 3.58913 12.411 0 8.00004 0V0ZM9.4545 8.72727H7.27268V9.4545H8.90905C9.21014 9.4545 9.4545 9.69886 9.4545 9.99995C9.4545 10.301 9.21014 10.5454 8.90905 10.5454H7.27268V11.0909C7.27268 11.392 7.02832 11.6363 6.72723 11.6363C6.42614 11.6363 6.18177 11.392 6.18177 11.0909V10.5454H4.90909C4.608 10.5454 4.36364 10.301 4.36364 9.99995C4.36364 9.69886 4.608 9.4545 4.90909 9.4545H6.18177V4.90909C6.18177 4.608 6.42614 4.36364 6.72723 4.36364H9.4545C10.6574 4.36364 11.6363 5.34255 11.6363 6.54545C11.6363 7.74836 10.6574 8.72727 9.4545 8.72727Z" fill="#FF3324"/>
</svg>
