<svg width="127" height="60" viewBox="0 0 127 60" fill="none" xmlns="http://www.w3.org/2000/svg">
<path d="M72.902 30.904C72.902 29.8187 72.946 28.8727 73.034 28.066C73.1367 27.2593 73.3127 26.5113 73.562 25.822C73.8113 25.118 74.1413 24.546 74.552 24.106C74.9627 23.666 75.4833 23.3287 76.114 23.094C76.7593 22.8447 77.5147 22.72 78.38 22.72C80.4773 22.72 82.3473 22.962 83.99 23.446V25.866C83.99 25.866 83.9533 25.866 83.88 25.866C83.8213 25.8513 83.7333 25.8367 83.616 25.822C83.4987 25.8073 83.3593 25.7927 83.198 25.778C83.0367 25.7633 82.8533 25.7487 82.648 25.734C82.4427 25.7193 82.23 25.7047 82.01 25.69C81.79 25.6753 81.5553 25.6607 81.306 25.646C81.0713 25.6313 80.8293 25.6167 80.58 25.602C80.3453 25.5873 80.096 25.58 79.832 25.58C79.568 25.5653 79.326 25.558 79.106 25.558C78.6953 25.558 78.3507 25.58 78.072 25.624C77.808 25.6533 77.544 25.734 77.28 25.866C77.0307 25.998 76.8327 26.1887 76.686 26.438C76.5393 26.6727 76.4073 26.988 76.29 27.384C76.1727 27.78 76.092 28.2713 76.048 28.858C76.004 29.43 75.982 30.1267 75.982 30.948C75.982 32.8547 76.1947 34.226 76.62 35.062C77.06 35.8833 77.8887 36.294 79.106 36.294C79.7953 36.294 80.5433 36.2793 81.35 36.25C82.1713 36.2207 82.8167 36.1913 83.286 36.162L83.99 36.118V38.516C82.5527 38.956 80.6827 39.1613 78.38 39.132C77.3827 39.1173 76.5247 38.9267 75.806 38.56C75.0873 38.1787 74.5153 37.6287 74.09 36.91C73.6793 36.1767 73.3787 35.326 73.188 34.358C72.9973 33.3753 72.902 32.224 72.902 30.904ZM85.6904 39V22.896H92.7304C93.3904 22.896 93.977 22.984 94.4904 23.16C95.0037 23.3213 95.4584 23.5927 95.8544 23.974C96.265 24.3407 96.5804 24.8613 96.8004 25.536C97.0204 26.196 97.1304 26.988 97.1304 27.912C97.1304 28.6747 97.0644 29.342 96.9324 29.914C96.8004 30.486 96.6537 30.926 96.4924 31.234C96.331 31.5273 96.111 31.7913 95.8324 32.026C95.5537 32.246 95.341 32.3853 95.1944 32.444C95.0477 32.5027 94.835 32.576 94.5564 32.664L97.6144 39H94.1384L91.4764 32.906L88.7704 32.598V39H85.6904ZM88.7924 30.178H92.4444C92.7377 30.178 92.9724 30.156 93.1484 30.112C93.3244 30.0533 93.4784 29.9433 93.6104 29.782C93.757 29.6207 93.8597 29.3933 93.9184 29.1C93.9917 28.792 94.0284 28.396 94.0284 27.912C94.0284 27.0467 93.8964 26.4527 93.6324 26.13C93.3684 25.7927 92.9724 25.624 92.4444 25.624H88.7924V30.178ZM99.2076 35.832V26.24C99.2076 25.6973 99.281 25.2207 99.4276 24.81C99.5743 24.3993 99.765 24.0767 99.9996 23.842C100.234 23.6073 100.506 23.4167 100.814 23.27C101.136 23.1087 101.444 23.006 101.738 22.962C102.046 22.918 102.368 22.896 102.706 22.896C106.49 22.9987 108.851 23.116 109.79 23.248V25.8H103.432C103.153 25.8 102.933 25.8293 102.772 25.888C102.61 25.9467 102.493 26.0493 102.42 26.196C102.361 26.3427 102.324 26.4673 102.31 26.57C102.295 26.6727 102.288 26.8267 102.288 27.032V29.54L108.8 29.76V32.312L102.288 32.51V35.018C102.288 35.2967 102.324 35.524 102.398 35.7C102.471 35.8613 102.588 35.9787 102.75 36.052C102.911 36.1107 103.043 36.1473 103.146 36.162C103.263 36.162 103.432 36.162 103.652 36.162H109.79V38.692C109.423 38.736 108.668 38.7947 107.524 38.868C106.38 38.9267 105.324 38.9707 104.356 39L102.926 39.066C102.588 39.0807 102.273 39.0733 101.98 39.044C101.686 39.0147 101.364 38.934 101.012 38.802C100.66 38.67 100.352 38.494 100.088 38.274C99.8383 38.054 99.6256 37.7387 99.4496 37.328C99.2883 36.9027 99.2076 36.404 99.2076 35.832ZM111.492 31.058C111.492 30.31 111.514 29.6207 111.558 28.99C111.617 28.3593 111.697 27.7947 111.8 27.296C111.917 26.7973 112.042 26.35 112.174 25.954C112.321 25.5433 112.497 25.1913 112.702 24.898C112.907 24.59 113.113 24.326 113.318 24.106C113.538 23.8713 113.795 23.6807 114.088 23.534C114.381 23.3727 114.66 23.248 114.924 23.16C115.203 23.0573 115.518 22.984 115.87 22.94C116.222 22.8813 116.552 22.8447 116.86 22.83C117.183 22.8007 117.549 22.786 117.96 22.786C118.488 22.786 118.943 22.8007 119.324 22.83C119.72 22.8593 120.131 22.9253 120.556 23.028C120.996 23.116 121.37 23.248 121.678 23.424C121.986 23.6 122.294 23.8273 122.602 24.106C122.925 24.37 123.189 24.7147 123.394 25.14C123.599 25.5507 123.783 26.0347 123.944 26.592C124.105 27.1347 124.223 27.7873 124.296 28.55C124.384 29.298 124.428 30.134 124.428 31.058C124.428 32.0553 124.369 32.95 124.252 33.742C124.149 34.5193 124.01 35.194 123.834 35.766C123.658 36.3233 123.416 36.8073 123.108 37.218C122.815 37.614 122.499 37.9367 122.162 38.186C121.839 38.4207 121.443 38.6113 120.974 38.758C120.505 38.89 120.035 38.978 119.566 39.022C119.111 39.066 118.576 39.088 117.96 39.088C117.417 39.088 116.941 39.0733 116.53 39.044C116.134 39.0147 115.716 38.956 115.276 38.868C114.851 38.78 114.484 38.6553 114.176 38.494C113.868 38.318 113.56 38.098 113.252 37.834C112.944 37.5553 112.687 37.218 112.482 36.822C112.277 36.4113 112.093 35.942 111.932 35.414C111.785 34.8713 111.675 34.2407 111.602 33.522C111.529 32.7887 111.492 31.9673 111.492 31.058ZM114.572 31.058C114.572 31.9673 114.601 32.7153 114.66 33.302C114.719 33.874 114.814 34.3653 114.946 34.776C115.093 35.1867 115.305 35.4947 115.584 35.7C115.863 35.9053 116.178 36.052 116.53 36.14C116.897 36.2133 117.373 36.25 117.96 36.25C118.869 36.25 119.551 36.118 120.006 35.854C120.461 35.59 120.798 35.0913 121.018 34.358C121.238 33.61 121.348 32.51 121.348 31.058C121.348 30.222 121.319 29.5107 121.26 28.924C121.216 28.3227 121.128 27.824 120.996 27.428C120.864 27.0173 120.717 26.6947 120.556 26.46C120.409 26.2253 120.197 26.0493 119.918 25.932C119.639 25.8 119.353 25.7193 119.06 25.69C118.781 25.646 118.415 25.624 117.96 25.624C117.579 25.624 117.263 25.6387 117.014 25.668C116.779 25.6827 116.523 25.7267 116.244 25.8C115.98 25.8733 115.767 25.9907 115.606 26.152C115.459 26.2987 115.305 26.504 115.144 26.768C114.997 27.032 114.887 27.362 114.814 27.758C114.741 28.1393 114.682 28.6013 114.638 29.144C114.594 29.6867 114.572 30.3247 114.572 31.058Z" fill="#467CCE"/>
<path d="M11.8701 28.9471V28.9611H13.8855V35.4076L16.2099 33.3492V28.2797H16.1959V27.9472V27.9458V27.9322H15.1231L14.6678 27.9261L19.265 18.6726L21.9799 13.2263L29.6858 27.9946V31.6734L31.7582 32.0332L32.1157 32.0975V32.0951L32.1294 32.0975V28.2797H44.5734V32.2632L44.5664 34.1576C44.5689 34.1566 44.5713 34.1556 44.5734 34.1546V34.1699C45.2474 33.8085 45.999 33.6205 46.771 33.6205C46.807 33.6205 46.8422 33.6223 46.8781 33.6262C46.8793 33.6273 46.8822 33.6262 46.8834 33.6273V33.6266C46.8883 33.6273 46.8928 33.6266 46.8973 33.6273V28.2797H48.4594L49.1673 28.2862L49.164 28.2797H49.1796L40.0509 10.79H38.3654V7.05566H32.1645V10.79H20.5847L12.0735 27.9322L11.9051 28.2797L11.8701 28.3424V28.9455V28.9471ZM34.0255 15.352V8.89865H36.5046V15.352H34.0255Z" fill="#467CCE"/>
<path d="M24.1929 27.7116V22.8262H20.394V27.668V27.6976V27.7116H24.1929Z" fill="#467CCE"/>
<path d="M48.5821 36.4503C48.1187 35.9983 47.515 35.741 46.8966 35.7131C46.8545 35.7059 46.8124 35.7059 46.7703 35.7059C46.2578 35.7059 45.7383 35.8591 45.2887 36.1723L44.5723 36.6865L38.8843 40.7759L36.4334 42.5352C36.0472 42.7992 35.6188 42.987 35.1765 43.0774H33.7581C33.6949 43.0636 33.6244 43.0498 33.5611 43.0291L26.0683 40.9494C25.935 40.9147 25.8016 40.852 25.6893 40.7759C25.3734 40.5672 25.1486 40.2333 25.0922 39.8507L25.0152 39.3293C24.9028 38.5087 25.5418 37.7994 26.3563 37.7994H26.4828L29.6849 38.0983L30.9627 38.2164C31.0474 38.2236 31.1315 38.2304 31.2157 38.2304C31.5388 38.2304 31.8478 38.1749 32.1286 38.0707C33.2452 37.6671 34.0106 36.5476 33.8704 35.289C33.821 34.823 33.4628 34.4406 32.9926 34.3639L32.1286 34.2179L29.6849 33.7939L23.6454 32.7507C23.2874 32.688 22.9224 32.6602 22.5642 32.6602C21.0261 32.6602 19.5304 33.2165 18.3647 34.2458L16.209 36.1511L13.8846 38.2027L8.07708 43.3345C7.40994 43.9189 7.31169 44.9133 7.84539 45.6157L11.8831 50.9844C12.2202 51.4362 12.733 51.6657 13.2596 51.6657C13.6458 51.6657 14.0322 51.5404 14.348 51.2764L18.2664 48.0705C18.9549 47.5141 19.8044 47.2152 20.6682 47.2152C20.9844 47.2152 21.3072 47.2566 21.6161 47.3401L32.9431 50.254C33.2242 50.3307 33.512 50.3656 33.7999 50.3656C34.5233 50.3656 35.2396 50.136 35.8294 49.6911L44.5862 43.0774L46.8966 41.3321L48.301 40.275C49.5512 39.3501 49.6849 37.5421 48.5821 36.4503Z" fill="#467CCE"/>
<path d="M29.8219 56.1272C44.6327 56.1272 56.6439 44.2365 56.6439 29.5636C56.6439 14.8906 44.6327 3 29.8219 3C15.0109 3 3 14.8906 3 29.5636C3 44.2365 15.0109 56.1272 29.8219 56.1272Z" stroke="#467CCE" stroke-width="6"/>
</svg>
